<svg xmlns="http://www.w3.org/2000/svg"  viewBox="0 0 64 64" width="512px" height="512px"><linearGradient id="dGLcWO86yvIsOWVGsCRVMa" x1="13" x2="13" y1="22.938" y2="41.102" gradientUnits="userSpaceOnUse" spreadMethod="reflect"><stop offset="0" stop-color="#1a6dff"/><stop offset="1" stop-color="#c822ff"/></linearGradient><path fill="url(#dGLcWO86yvIsOWVGsCRVMa)" d="M2 31H24V33H2z"/><linearGradient id="dGLcWO86yvIsOWVGsCRVMb" x1="51" x2="51" y1="22.938" y2="41.102" gradientUnits="userSpaceOnUse" spreadMethod="reflect"><stop offset="0" stop-color="#1a6dff"/><stop offset="1" stop-color="#c822ff"/></linearGradient><path fill="url(#dGLcWO86yvIsOWVGsCRVMb)" d="M40 31H62V33H40z"/><linearGradient id="dGLcWO86yvIsOWVGsCRVMc" x1="32" x2="32" y1="22.938" y2="41.102" gradientUnits="userSpaceOnUse" spreadMethod="reflect"><stop offset="0" stop-color="#1a6dff"/><stop offset="1" stop-color="#c822ff"/></linearGradient><path fill="url(#dGLcWO86yvIsOWVGsCRVMc)" d="M32,41c-4.963,0-9-4.037-9-9s4.037-9,9-9s9,4.037,9,9S36.963,41,32,41z M32,25 c-3.859,0-7,3.141-7,7s3.141,7,7,7s7-3.141,7-7S35.859,25,32,25z"/><linearGradient id="dGLcWO86yvIsOWVGsCRVMd" x1="32" x2="32" y1="27" y2="37" gradientUnits="userSpaceOnUse" spreadMethod="reflect"><stop offset="0" stop-color="#6dc7ff"/><stop offset="1" stop-color="#e6abff"/></linearGradient><path fill="url(#dGLcWO86yvIsOWVGsCRVMd)" d="M32 27A5 5 0 1 0 32 37A5 5 0 1 0 32 27Z"/></svg>