<?xml version="1.0" encoding="UTF-8" standalone="no" ?>
<!DOCTYPE svg PUBLIC "-//W3C//DTD SVG 1.1//EN" "http://www.w3.org/Graphics/SVG/1.1/DTD/svg11.dtd">
<svg xmlns="http://www.w3.org/2000/svg" xmlns:xlink="http://www.w3.org/1999/xlink" version="1.1" width="640" height="640" viewBox="0 0 640 640" xml:space="preserve">
<desc>Created with Fabric.js 5.3.0</desc>
<defs>
</defs>
<g transform="matrix(1 0 0 1 320 327.7753003952)" id="yOBhj5X5mblbsBb8wApl5"  >
<g style=""   >
		<g transform="matrix(11.1223412937 0 0 11.1223412937 0 0)" id="8GW_IIKqU2q6qJ4-gGd-c"  >
<path style="stroke: none; stroke-width: 1; stroke-dasharray: none; stroke-linecap: butt; stroke-dashoffset: 0; stroke-linejoin: miter; stroke-miterlimit: 10; fill: rgb(255,255,255); fill-rule: nonzero; opacity: 1;"  transform=" translate(-31.997311672, -31.49986)" d="M 40 6 L 35 10 L 41 12.37695 L 45 6.000000000000001 z M 10 7 L 7 10 L 10 15 L 13.30859 16.41797 L 26.70117 30.44922 C 17.983810000000002 37.64442 9.209890000000001 44.89219 9.05078 45.05078 C 6.31678 47.784780000000005 6.31678 52.21622000000001 9.05078 54.949220000000004 C 11.78478 57.683220000000006 16.21522 57.683220000000006 18.94922 54.949220000000004 C 19.177 54.72144 31.92305 39.27441 39.82031 29.701170000000005 L 51.14062 27.544920000000005 C 52.84562 27.219920000000005 54.14532 25.833330000000004 54.36132 24.111330000000006 L 55.99999 11.000000000000005 L 51.99999 7.000000000000005 L 47.99999 19.000000000000007 L 33.865219999999994 11.660160000000008 L 33.267559999999996 25.031250000000007 C 32.26154999999999 25.861180000000008 31.947859999999995 26.119160000000008 30.816389999999995 27.052730000000007 L 16.417949999999994 13.308590000000008 L 14.999979999999994 10.000000000000007 z M 40.61719 32.53906 L 34.41406 43.10351 L 45.558589999999995 56.13476 C 45.57075 56.14993 45.583119999999994 56.16491 45.595699999999994 56.17968 L 45.74217999999999 56.349599999999995 L 45.74803999999999 56.34374 C 47.24017999999999 57.83631 50.82154999999999 56.67545 53.74998999999999 53.74999 C 56.67526999999999 50.821569999999994 57.83610999999999 47.24028 56.34373999999999 45.748039999999996 L 56.34959999999999 45.74218 L 56.29686999999999 45.69921 C 56.26651999999999 45.67159 56.23525999999999 45.644890000000004 56.20311999999999 45.61913 z M 14 47 C 15.657 47 17 48.343 17 50 C 17 51.657 15.657 53 14 53 C 12.343 53 11 51.657 11 50 C 11 48.343 12.343 47 14 47 z" stroke-linecap="round" />
</g>
		<g transform="matrix(4.4828294621 0 0 3.6364222173 12.5752570792 0)" id="HpEY3nZIhhSnEc021EAtK"  >
<path style="stroke: rgb(83,167,153); stroke-width: 0; stroke-dasharray: none; stroke-linecap: butt; stroke-dashoffset: 0; stroke-linejoin: miter; stroke-miterlimit: 4; fill: rgb(146,0,195); fill-rule: nonzero; opacity: 1;"  transform=" translate(0, 0)" d="M 0 -36.40501 C 20.09556 -36.40501 36.40501 -20.09557 36.40501 0 C 36.40501 20.09556 20.09557 36.40501 0 36.40501 C -20.09556 36.40501 -36.40501 20.09557 -36.40501 0 C -36.40501 -20.09556 -20.09557 -36.40501 0 -36.40501 z" stroke-linecap="round" />
</g>
		<g transform="matrix(16.000005 0 0 16.000005 -59.9047655708 36.6382006847)" id="TkR2AIrhaJjzv_4fFvWXe"  >
<path style="stroke: none; stroke-width: 1; stroke-dasharray: none; stroke-linecap: butt; stroke-dashoffset: 0; stroke-linejoin: miter; stroke-miterlimit: 10; fill: rgb(255,255,255); fill-rule: nonzero; opacity: 1;"  transform=" translate(-7.47, -15.5965)" d="M 7.47 18.323 C 8.76 18.323 9.305 16.631 9.305 15.596 C 9.305 14.561 8.759 12.870000000000001 7.47 12.870000000000001 C 6.181 12.870000000000001 5.635 14.562000000000001 5.635 15.597000000000001 C 5.635 16.632 6.18 18.323 7.47 18.323 z" stroke-linecap="round" />
</g>
		<g transform="matrix(16.000005 0 0 16.000005 12.5752570792 -20.9102936629)" id="xua_-UeyvsftIp9H60do6"  >
<path style="stroke:white;stroke-width: 1; stroke-dasharray: none; stroke-linecap: butt; stroke-dashoffset: 0; stroke-linejoin: miter; stroke-miterlimit: 10; stroke: white;fill-rule: nonzero; opacity: 1;filter: url(#SVGID_0);"  transform=" translate(-12, -12.0002797727)" d="M 12.29 21.5 C 16.02 21.5 21.229999999999997 21.59 23.125999999999998 17.799 C 23.839999999999996 16.349 23.999999999999996 14.675999999999998 23.999999999999996 13.097999999999999 L 23.998999999999995 13.097999999999999 C 23.998999999999995 11.024999999999999 23.423999999999996 9.050999999999998 22.048999999999996 7.447999999999999 C 22.303999999999995 6.681999999999999 22.433999999999997 5.874999999999998 22.433999999999997 5.062999999999999 C 22.433999999999997 3.9989999999999988 22.194 3.464999999999999 21.705 2.4999999999999987 C 19.464999999999996 2.4999999999999987 18.014999999999997 2.9199999999999986 16.314999999999998 4.241999999999999 C 15.004999999999997 3.9299999999999993 13.645999999999997 3.786999999999999 12.294999999999998 3.786999999999999 C 10.798999999999998 3.786999999999999 9.308999999999997 3.940999999999999 7.8599999999999985 4.281999999999999 C 6.133999999999999 2.9449999999999994 4.683999999999998 2.499999999999999 2.4189999999999987 2.499999999999999 C 1.9349999999999987 3.464999999999999 1.6889999999999987 3.998999999999999 1.6889999999999987 5.062999999999999 C 1.6889999999999987 5.873999999999999 1.8139999999999987 6.6949999999999985 2.073999999999999 7.4769999999999985 C 0.694999999999999 9.065999999999999 -8.881784197001252e-16 11.024999999999999 -8.881784197001252e-16 13.097999999999999 C -8.881784197001252e-16 14.675999999999998 0.28099999999999914 16.363999999999997 1.0099999999999991 17.798 C 2.979999999999999 21.633 8.501 21.5 12.29 21.5 z M 7.001 11.509 C 7.9510000000000005 11.509 8.866 11.677 9.801 11.806000000000001 C 10.551 11.920000000000002 11.297 11.964 12.056000000000001 11.964 C 12.821000000000002 11.964 13.566 11.919 14.311 11.806000000000001 C 15.261 11.677000000000001 16.166 11.509 17.111 11.509 C 19.45 11.509 20.786 13.424 20.786 15.596 C 20.786 19.945 16.771 20.608 13.256 20.608 L 10.846 20.608 C 7.346 20.608 3.3260000000000005 19.941 3.3260000000000005 15.596 C 3.3260000000000005 13.424 4.66 11.509 7.001 11.509 z" stroke-linecap="round" />
<filter id="SVGID_0" y="-35.789008700000004%" height="171.57801740000002%" x="-32.5%" width="165%" >
	<feGaussianBlur in="SourceAlpha" stdDeviation="1"></feGaussianBlur>
	<feOffset dx="-1" dy="1" result="oBlur" ></feOffset>
	<feFlood flood-color="rgb(67,0,104)" flood-opacity="1"/>
	<feComposite in2="oBlur" operator="in" />
	<feMerge>
		<feMergeNode></feMergeNode>
		<feMergeNode in="SourceGraphic"></feMergeNode>
	</feMerge>
</filter>
<path style="stroke: none; stroke-width: 1; stroke-dasharray: none; stroke-linecap: butt; stroke-dashoffset: 0; stroke-linejoin: miter; stroke-miterlimit: 10; fill: rgb(255,255,255); fill-rule: nonzero; opacity: 1;"  transform=" translate(-12, -12.0002797727)" d="M 12.29 21.5 C 16.02 21.5 21.229999999999997 21.59 23.125999999999998 17.799 C 23.839999999999996 16.349 23.999999999999996 14.675999999999998 23.999999999999996 13.097999999999999 L 23.998999999999995 13.097999999999999 C 23.998999999999995 11.024999999999999 23.423999999999996 9.050999999999998 22.048999999999996 7.447999999999999 C 22.303999999999995 6.681999999999999 22.433999999999997 5.874999999999998 22.433999999999997 5.062999999999999 C 22.433999999999997 3.9989999999999988 22.194 3.464999999999999 21.705 2.4999999999999987 C 19.464999999999996 2.4999999999999987 18.014999999999997 2.9199999999999986 16.314999999999998 4.241999999999999 C 15.004999999999997 3.9299999999999993 13.645999999999997 3.786999999999999 12.294999999999998 3.786999999999999 C 10.798999999999998 3.786999999999999 9.308999999999997 3.940999999999999 7.8599999999999985 4.281999999999999 C 6.133999999999999 2.9449999999999994 4.683999999999998 2.499999999999999 2.4189999999999987 2.499999999999999 C 1.9349999999999987 3.464999999999999 1.6889999999999987 3.998999999999999 1.6889999999999987 5.062999999999999 C 1.6889999999999987 5.873999999999999 1.8139999999999987 6.6949999999999985 2.073999999999999 7.4769999999999985 C 0.694999999999999 9.065999999999999 -8.881784197001252e-16 11.024999999999999 -8.881784197001252e-16 13.097999999999999 C -8.881784197001252e-16 14.675999999999998 0.28099999999999914 16.363999999999997 1.0099999999999991 17.798 C 2.979999999999999 21.633 8.501 21.5 12.29 21.5 z M 7.001 11.509 C 7.9510000000000005 11.509 8.866 11.677 9.801 11.806000000000001 C 10.551 11.920000000000002 11.297 11.964 12.056000000000001 11.964 C 12.821000000000002 11.964 13.566 11.919 14.311 11.806000000000001 C 15.261 11.677000000000001 16.166 11.509 17.111 11.509 C 19.45 11.509 20.786 13.424 20.786 15.596 C 20.786 19.945 16.771 20.608 13.256 20.608 L 10.846 20.608 C 7.346 20.608 3.3260000000000005 19.941 3.3260000000000005 15.596 C 3.3260000000000005 13.424 4.66 11.509 7.001 11.509 z" stroke-linecap="round" />
</g>
		<g transform="matrix(16.000005 0 0 16.000005 108.5752870792 -20.9058172978)" id="RB2DGtB-UOrdhhM0UNfyN"  >
<path style="stroke:white;stroke-width: 1; stroke-dasharray: none; stroke-linecap: butt; stroke-dashoffset: 0; stroke-linejoin: miter; stroke-miterlimit: 10; stroke: white;fill-rule: nonzero; opacity: 1;filter: url(#SVGID_1);"  transform=" translate(-18, -12)" d="M 21.705 2.5 C 19.464999999999996 2.5 18.014999999999997 2.92 16.314999999999998 4.242 C 15.004999999999997 3.93 13.645999999999997 3.787 12.294999999999998 3.787 C 12.196999999999997 3.787 12.098999999999998 3.788 12.000999999999998 3.7889999999999997 L 12.000999999999998 11.965 L 12.056999999999997 11.965 C 12.821999999999997 11.965 13.566999999999997 11.92 14.311999999999998 11.807 C 15.261999999999997 11.678 16.166999999999998 11.51 17.112 11.51 C 19.450999999999997 11.51 20.787 13.425 20.787 15.597 C 20.787 19.945999999999998 16.772 20.608999999999998 13.256999999999998 20.608999999999998 L 11.999999999999998 20.608999999999998 L 11.999999999999998 21.5 L 12.289999999999997 21.5 L 12.804999999999998 21.5 C 16.485 21.5 21.315999999999995 21.418 23.125999999999998 17.799 C 23.839999999999996 16.349 23.999999999999996 14.675999999999998 23.999999999999996 13.097999999999999 L 23.998999999999995 13.097999999999999 C 23.998999999999995 11.024999999999999 23.423999999999996 9.050999999999998 22.048999999999996 7.447999999999999 C 22.303999999999995 6.681999999999999 22.433999999999997 5.874999999999998 22.433999999999997 5.062999999999999 C 22.433999999999997 3.9989999999999988 22.194 3.464999999999999 21.705 2.4999999999999987 z" stroke-linecap="round" />
<filter id="SVGID_1" y="-35.78947368%" height="171.57894736%" x="-45%" width="190%" >
	<feGaussianBlur in="SourceAlpha" stdDeviation="1"></feGaussianBlur>
	<feOffset dx="1" dy="1" result="oBlur" ></feOffset>
	<feFlood flood-color="rgb(78,0,109)" flood-opacity="1"/>
	<feComposite in2="oBlur" operator="in" />
	<feMerge>
		<feMergeNode></feMergeNode>
		<feMergeNode in="SourceGraphic"></feMergeNode>
	</feMerge>
</filter>
<path style="stroke: none; stroke-width: 1; stroke-dasharray: none; stroke-linecap: butt; stroke-dashoffset: 0; stroke-linejoin: miter; stroke-miterlimit: 10; fill: rgb(255,255,255); fill-rule: nonzero; opacity: 1;"  transform=" translate(-18, -12)" d="M 21.705 2.5 C 19.464999999999996 2.5 18.014999999999997 2.92 16.314999999999998 4.242 C 15.004999999999997 3.93 13.645999999999997 3.787 12.294999999999998 3.787 C 12.196999999999997 3.787 12.098999999999998 3.788 12.000999999999998 3.7889999999999997 L 12.000999999999998 11.965 L 12.056999999999997 11.965 C 12.821999999999997 11.965 13.566999999999997 11.92 14.311999999999998 11.807 C 15.261999999999997 11.678 16.166999999999998 11.51 17.112 11.51 C 19.450999999999997 11.51 20.787 13.425 20.787 15.597 C 20.787 19.945999999999998 16.772 20.608999999999998 13.256999999999998 20.608999999999998 L 11.999999999999998 20.608999999999998 L 11.999999999999998 21.5 L 12.289999999999997 21.5 L 12.804999999999998 21.5 C 16.485 21.5 21.315999999999995 21.418 23.125999999999998 17.799 C 23.839999999999996 16.349 23.999999999999996 14.675999999999998 23.999999999999996 13.097999999999999 L 23.998999999999995 13.097999999999999 C 23.998999999999995 11.024999999999999 23.423999999999996 9.050999999999998 22.048999999999996 7.447999999999999 C 22.303999999999995 6.681999999999999 22.433999999999997 5.874999999999998 22.433999999999997 5.062999999999999 C 22.433999999999997 3.9989999999999988 22.194 3.464999999999999 21.705 2.4999999999999987 z" stroke-linecap="round" />
</g>
		<g transform="matrix(16.000005 0 0 16.000005 87.0632693689 36.6302006822)" id="dvl8wdurQz4APjA5KFjCD"  >
<path style="stroke: none; stroke-width: 1; stroke-dasharray: none; stroke-linecap: butt; stroke-dashoffset: 0; stroke-linejoin: miter; stroke-miterlimit: 10; fill: rgb(255,255,255); fill-rule: nonzero; opacity: 1;"  transform=" translate(-16.6554993133, -15.596)" d="M 16.655 18.323 C 17.944000000000003 18.323 18.490000000000002 16.631 18.490000000000002 15.596 C 18.490000000000002 14.561 17.945 12.869 16.655 12.869 C 15.365000000000002 12.869 14.821000000000002 14.561 14.821000000000002 15.596 C 14.820000000000002 16.631 15.365000000000002 18.323 16.655 18.323 z" stroke-linecap="round" />
</g>
		<g transform="matrix(16.000005 0 0 16.000005 101.7352849417 36.6382006847)" id="4eaP5NmzGb5CgyGVflnN9"  >
<path style="stroke: none; stroke-width: 1; stroke-dasharray: none; stroke-linecap: butt; stroke-dashoffset: 0; stroke-linejoin: miter; stroke-miterlimit: 10; fill: rgb(255,255,255); fill-rule: nonzero; opacity: 1;"  transform=" translate(-17.5725, -15.5965)" d="M 16.655 12.87 L 16.655 18.323 C 17.944000000000003 18.323 18.490000000000002 16.631 18.490000000000002 15.596 C 18.490000000000002 14.562 17.944000000000003 12.870000000000001 16.655 12.870000000000001 z" stroke-linecap="round" />
</g>
		<g transform="matrix(16.000005 0 0 16.000005 -45.2247609833 36.6382006847)" id="HISqd9Jncfxtksq5hES9R"  >
<path style="stroke: none; stroke-width: 1; stroke-dasharray: none; stroke-linecap: butt; stroke-dashoffset: 0; stroke-linejoin: miter; stroke-miterlimit: 10; fill: rgb(255,255,255); fill-rule: nonzero; opacity: 1;"  transform=" translate(-8.3875, -15.5965)" d="M 7.47 12.87 L 7.47 18.323 C 8.759 18.323 9.305 16.631 9.305 15.596 C 9.305 14.562 8.759 12.870000000000001 7.47 12.870000000000001 z" stroke-linecap="round" />
</g>
		<g transform="matrix(1 0 0 1.59 12.5752570792 -83.4977122268)" id="GMVExgD3EkdjwMDzaqV8i"  >
<path style="stroke: rgb(194,43,205); stroke-width: 0; stroke-dasharray: none; stroke-linecap: butt; stroke-dashoffset: 0; stroke-linejoin: miter; stroke-miterlimit: 4; fill: rgb(255,255,255); fill-rule: nonzero; opacity: 1;"  transform=" translate(0, 0)" d="M 0 -36.40501 C 20.09556 -36.40501 36.40501 -20.09557 36.40501 0 C 36.40501 20.09556 20.09557 36.40501 0 36.40501 C -20.09556 36.40501 -36.40501 20.09557 -36.40501 0 C -36.40501 -20.09556 -20.09557 -36.40501 0 -36.40501 z" stroke-linecap="round" />
</g>
		<g transform="matrix(0.9998476952 -0.0174524064 0.0218978131 1.2545248741 -58.8864045462 37.9020888645)" id="Ma3yoLSemwV-iPd5kXSBZ"  >
<path style="stroke: rgb(33,74,179); stroke-width: 0; stroke-dasharray: none; stroke-linecap: butt; stroke-dashoffset: 0; stroke-linejoin: miter; stroke-miterlimit: 4; fill: rgb(255,255,255); fill-rule: nonzero; opacity: 1;"  transform=" translate(0, 0)" d="M 0 -36.40501 C 20.09556 -36.40501 36.40501 -20.09557 36.40501 0 C 36.40501 20.09556 20.09557 36.40501 0 36.40501 C -20.09556 36.40501 -36.40501 20.09557 -36.40501 0 C -36.40501 -20.09556 -20.09557 -36.40501 0 -36.40501 z" stroke-linecap="round" />
</g>
		<g transform="matrix(0.9998476952 -0.0174524064 0.0218978131 1.2545248742 86.1769182142 36.6382006847)" id="XTnwNDnGMPD0kVth9MTJJ"  >
<path style="stroke: rgb(33,74,179); stroke-width: 0; stroke-dasharray: none; stroke-linecap: butt; stroke-dashoffset: 0; stroke-linejoin: miter; stroke-miterlimit: 4; fill: rgb(255,255,255); fill-rule: nonzero; opacity: 1;"  transform=" translate(0, 0)" d="M 0 -36.40501 C 20.09556 -36.40501 36.40501 -20.09557 36.40501 0 C 36.40501 20.09556 20.09557 36.40501 0 36.40501 C -20.09556 36.40501 -36.40501 20.09557 -36.40501 0 C -36.40501 -20.09556 -20.09557 -36.40501 0 -36.40501 z" stroke-linecap="round" />
</g>
		<g transform="matrix(2.9675427995 -0.0517986522 0.0174524064 0.9998476952 12.5752570792 -114.8240957897)" id="G7dKjN6tgsLy-7JdjMzps"  >
<path style="stroke: rgb(70,198,38); stroke-width: 0; stroke-dasharray: none; stroke-linecap: butt; stroke-dashoffset: 0; stroke-linejoin: miter; stroke-miterlimit: 4; fill: rgb(255,255,255); fill-rule: nonzero; opacity: 1;"  transform=" translate(0, 0)" d="M 0 -36.40501 C 20.09556 -36.40501 36.40501 -20.09557 36.40501 0 C 36.40501 20.09556 20.09557 36.40501 0 36.40501 C -20.09556 36.40501 -36.40501 20.09557 -36.40501 0 C -36.40501 -20.09556 -20.09557 -36.40501 0 -36.40501 z" stroke-linecap="round" />
</g>
		<g transform="matrix(2.5620361461 0 0 1.0646604628 11.4039902071 -59.6647875006)" id="67DtCApaXoTbPY6L5JAfE"  >
<path style="stroke: rgb(70,198,38); stroke-width: 0; stroke-dasharray: none; stroke-linecap: butt; stroke-dashoffset: 0; stroke-linejoin: miter; stroke-miterlimit: 4; fill: rgb(255,255,255); fill-rule: nonzero; opacity: 1;"  transform=" translate(0, 0)" d="M 0 -36.40501 C 20.09556 -36.40501 36.40501 -20.09557 36.40501 0 C 36.40501 20.09556 20.09557 36.40501 0 36.40501 C -20.09556 36.40501 -36.40501 20.09557 -36.40501 0 C -36.40501 -20.09556 -20.09557 -36.40501 0 -36.40501 z" stroke-linecap="round" />
</g>
		<g transform="matrix(1 0 0 0.1440152755 4.5752545792 123.7929462656)" id="KQniiwlBwwMIzfPEkQtA9"  >
<path style="stroke: rgb(46,119,13); stroke-width: 0; stroke-dasharray: none; stroke-linecap: butt; stroke-dashoffset: 0; stroke-linejoin: miter; stroke-miterlimit: 4; fill: rgb(255,255,255); fill-rule: nonzero; opacity: 1;"  transform=" translate(0, 0)" d="M -36.40501 -36.40501 L 36.40500000000001 -36.40501 L 36.40500000000001 36.40500000000001 L -36.40501 36.40500000000001 z" stroke-linecap="round" />
</g>
</g>
</g>
</svg>