<svg id="visual" viewBox="0 0 960 540" width="960" height="540" xmlns="http://www.w3.org/2000/svg" xmlns:xlink="http://www.w3.org/1999/xlink" version="1.1"><rect x="0" y="0" width="960" height="540" fill="#050609"></rect><path d="M349 0L356.2 15C363.3 30 377.7 60 407.7 90C437.7 120 483.3 150 505.3 180C527.3 210 525.7 240 490.3 270C455 300 386 330 386.3 360C386.7 390 456.3 420 482.3 450C508.3 480 490.7 510 481.8 525L473 540L0 540L0 525C0 510 0 480 0 450C0 420 0 390 0 360C0 330 0 300 0 270C0 240 0 210 0 180C0 150 0 120 0 90C0 60 0 30 0 15L0 0Z" fill="#ffcf00" stroke-linecap="round" stroke-linejoin="miter"></path></svg>